<?xml version="1.0" encoding="utf-8"?>
<!-- Generator: Adobe Illustrator 24.0.2, SVG Export Plug-In . SVG Version: 6.00 Build 0)  -->
<svg version="1.1" id="Layer_1" xmlns="http://www.w3.org/2000/svg" xmlns:xlink="http://www.w3.org/1999/xlink" x="0px" y="0px"
	 viewBox="0 0 664.5 694.6" style="enable-background:new 0 0 664.5 694.6;" xml:space="preserve">
<style type="text/css">
	.st0{fill:#2E3192;}
	.st1{fill:#ED1C24;}
	.st2{fill:#34328F;}
</style>
<title>Amin</title>
<path class="st0" d="M332.3,0L332.3,0C148.8,0,0,148.1,0,330.7v361h130.6V329.6c0-110.9,90.3-200.7,201.7-200.7l0,0
	c111.4,0,201.7,89.9,201.7,200.7v362.2h130.6V330.7C664.5,148.1,515.8,0,332.3,0z"/>
<path class="st1" d="M188.6,272.2l12.4,5.9c-0.5,1-1,2-1.4,3l11.3,5.2l-4.4,10.2l-30.9-12c-6-2.3-10-5.5-12-9.7s-2-9,0.5-14.2
	c2.5-4.9,5.8-7.9,9.7-8.7s9.1,0.5,14.9,3.8l29.4,16.4c-2,3.1-3.4,6.5-5.1,9.8l-29.4-14.2c-1.2-0.7-2.6-1.1-4-1.3
	c-0.9,0-1.7,0.6-2,1.5c-0.9,1.8,0.3,3.5,3.5,4.9l5.9,2.7C187.6,274.4,188.1,273.3,188.6,272.2"/>
<path class="st1" d="M221.2,267L189,247.7c-4-2.4-6.6-5.4-7.8-9.1c-1.1-3.7-0.4-7.6,1.8-10.7c2.7-4.1,7-5.6,12.5-4.7
	c-1.1-2.3-1.5-4.9-1.3-7.5c0.3-2.4,1.4-4.6,3.1-6.3c2.9-3.3,6.2-4.8,9.8-4.5s7.5,2.5,11.5,6.3l26.1,25c-2.6,2.5-4.8,5.4-7.2,8
	l-25.9-21.7c-0.8-0.8-1.7-1.4-2.7-1.8c-0.6-0.2-1.2,0-1.5,0.5c-0.9,1-0.2,2.3,1.7,3.9l26.5,21.4l-6.6,8.7l-27.6-19.6
	c-0.9-0.7-1.8-1.2-2.8-1.6c-0.6-0.1-1.2,0.1-1.4,0.7c-0.7,1.1,0,2.4,2.3,3.9l27.9,19.1C225.1,260.8,222.9,263.7,221.2,267"/>
<path class="st1" d="M224.1,184.6l33.1,40c-2.6,2.4-5.5,4.5-8,7.1l-36-37.5C216.6,190.8,220.5,187.8,224.1,184.6"/>
<path class="st1" d="M262.3,220.8L242,193.8c-3.5-4.7-5.2-9.4-4.6-14.2s3.4-8.7,8.2-11.7c4-2.8,9.1-3.5,13.6-1.7
	c4.2,1.7,7.5,5.6,10.3,11.4l14.4,29.9c-3,1.7-6.2,3.1-9.2,4.9l-16.8-28.6c-1.6-2.7-3.2-3.5-4.9-2.5c-1.6,1-1.6,2.8,0.1,5.4l17.8,28
	C267.9,216.6,265,218.6,262.3,220.8"/>
<path class="st1" d="M308.6,162.1l6,36.4c-3.3,0.4-6.6,1.4-9.9,2.1l-9.4-35.7c-3.4,0.8-6.6,2-10,3l-4.8-14.2
	c11.8-4.3,24.3-6.4,36.8-7.9l1.4,14.9L308.6,162.1"/>
<path class="st1" d="M337.4,159.3l-1.3,37.9c-3.4-0.2-6.7-0.2-10.1,0.1l-3-51.8c6.4-0.5,12.8-0.5,19.2,0c4.9-0.1,9.7,2.1,12.9,5.8
	c3,3.8,3.8,8.2,2.9,13.2c-0.9,4.9-3.7,9.4-7.8,12.3c1.3,7.3,2.3,14.7,2.8,22.1c-3.5-0.7-7-1-10.5-1.5c-1.1-5.7-2.5-11.3-4.1-16.9
	l0.7-13.3l1,0c2.7,0.1,4.2-1.2,4.5-4c0.2-2.4-1.4-3.7-4.7-3.9L337.4,159.3"/>
<path class="st1" d="M376.7,178.4l-4.5,13l-3.1-1l-3.8,11.8c-3.2-1.1-6.5-2-9.8-2.6l7.1-32.2c1.3-6.2,3.9-10.7,8-13.4
	s9.1-2.9,14.9-1.1c5.7,1.7,8.9,5.3,10.2,9.1s0.3,9-2.5,15l-14.2,30.4c-3.2-1.3-6.3-2.7-9.5-3.9l11.1-30.6c0.6-1.3,0.8-2.7,0.8-4.1
	c-0.2-0.9-0.9-1.6-1.7-1.8c-2-0.6-3.5,0.7-4.6,4.1l-2,6.1L376.7,178.4"/>
<path class="st1" d="M413.6,184.4l-19.9,31.1c-2.9-1.9-5.9-3.7-9-5.2l24.3-45.8c5.8,2.8,11,6.4,16.3,9.6
	c6.7,4.8,10.9,10.2,11.7,16.3c1,7.2-1.5,13.6-7,19.7c-5.3,5.8-11.2,9.3-17.1,10.7c-5.9,1.3-11,0.8-15.4-2.4l-2.5-1.9l8.4-12.7l1.6,1
	c5.5,3.9,10.5,3,15.2-2.9c4.4-5.5,3.5-10.6-2.8-15.1L413.6,184.4"/>
<path class="st1" d="M453.6,227.3l-9,7.3c-1.6-2.1-3.4-4-5.1-5.9c-0.5-0.7-1.2-1.1-2-1.3c-0.8,0-1.5,0.3-2,0.9
	c-0.8,0.7-1.2,1.4-1.2,2c0.2,0.9,0.7,1.7,1.4,2.4c1.7,2,3.6,3.8,5.1,6l-11.6,9.2c-1.7-2.3-3.7-4.2-5.5-6.4c-2.6-3.1-3.8-6.1-3.4-9.5
	s2.3-7.1,5.9-10.8l14.1-14.6c3.5-3.6,7-5.5,10.8-5.6c4.2,0,8.1,1.9,10.6,5.1c2.7,3.1,5.5,6.1,8,9.3l-11.7,9.4
	c-1.6-2.3-3.6-4.3-5.4-6.4c-1.5-1.7-2.9-2-4.1-0.8c-0.6,0.5-1,1.2-1,2c0.2,0.9,0.7,1.8,1.4,2.5C450.6,223.7,452.2,225.4,453.6,227.3
	"/>
<path class="st1" d="M471.3,240.9l-31.9,20.7c-2.1-3-3.9-6.2-6.2-8.9l41.8-30.9c3.8,4.7,6.8,9.9,10.3,14.9c2.9,4.7,3.7,9.2,2.5,13.2
	c-1.2,4.5-4.4,7.9-8.9,10.3c-4.4,2.3-9.6,2.9-14.4,1.4c-5,5.5-10.3,10.8-15.7,16c-1.6-3.5-3.8-6.7-5.6-10c3.9-4.4,7.8-9,11.4-13.5
	l11.3-7.2l0.6,0.8c1.5,2.3,3.3,2.8,5.7,1.3c2-1.2,2.4-3.4,0.6-6L471.3,240.9"/>
<path class="st1" d="M506.2,277.7l-13.8,5.4c0-0.8-0.2-1.5-0.4-2.2c-0.4-0.9-1.2-1.6-2.2-1.9c-1.1-0.3-2.3-0.2-3.3,0.2
	c-1.2,0.6-2.3,1.5-3.2,2.6l-1.5,1.7c-2.5,2.8-5.5,5-9,6.4c-4.3,1.8-9,2.1-13.4,1.1c-3.7-0.7-6.9-3.1-8.6-6.5
	c-0.8-1.7-1.1-3.6-0.8-5.5l13.4-6.8c-0.4,1.1-0.4,2.3,0,3.4c0.4,0.9,1.2,1.6,2.2,1.8c1,0.3,2.2,0.2,3.1-0.3c1.4-1,2.7-2.3,3.7-3.7
	c2.6-3.3,5.9-6,9.7-7.9c4.1-2.2,9-2.7,13.5-1.4c4.2,1.1,7.7,4.1,9.4,8.1C505.6,273.9,506,275.8,506.2,277.7"/>
<rect x="260.7" y="461.1" class="st1" width="135" height="233.5"/>
<rect x="138.6" y="321" class="st2" width="379.1" height="59.2"/>
<rect x="138.6" y="389.7" class="st1" width="379.1" height="59.2"/>
</svg>
